name C:/MyDriveSym/Projects/mobilecap/Data\Session20210816_0002\mocap\ForceDataProcessed\walking3_forces.mot
datacolumns 19
datarows 19
range 1.03450000 1.04350000
endheader 
time	R_ground_force_vx	R_ground_force_vy	R_ground_force_vz	R_ground_force_px	R_ground_force_py	R_ground_force_pz	R_ground_torque_x	R_ground_torque_y	R_ground_torque_z	L_ground_force_vx	L_ground_force_vy	L_ground_force_vz	L_ground_force_px	L_ground_force_py	L_ground_force_pz	L_ground_torque_x	L_ground_torque_y	L_ground_torque_z	
          1.03450000	          0.00000000	          0.00000000	          0.00000000	          1.29916600	          0.00000000	         -0.21432600	          0.00000000	          0.00000000	          0.00000000	         38.48321300	        643.63852400	         25.60504100	          0.94290200	          0.00600000	         -0.30428200	          0.00000000	          3.47980900	          0.00000000	
          1.03500000	          0.00000000	          0.00000000	          0.00000000	          1.30077700	          0.00000000	         -0.21432900	          0.00000000	          0.00000000	          0.00000000	         38.80405200	        644.07405100	         25.65292900	          0.94300300	          0.00600000	         -0.30427300	          0.00000000	          3.47515700	          0.00000000	
          1.03550000	          0.00000000	          0.00000000	          0.00000000	          1.30238800	          0.00000000	         -0.21433200	          0.00000000	          0.00000000	          0.00000000	         39.12536200	        644.50578500	         25.70004500	          0.94310300	          0.00600000	         -0.30426500	          0.00000000	          3.47043100	          0.00000000	
          1.03600000	          0.00000000	          0.00000000	          0.00000000	          1.30399900	          0.00000000	         -0.21433500	          0.00000000	          0.00000000	          0.00000000	         39.44713400	        644.93364500	         25.74637800	          0.94320400	          0.00600000	         -0.30425600	          0.00000000	          3.46563200	          0.00000000	
          1.03650000	          0.00000000	          0.00000000	          0.00000000	          1.30561000	          0.00000000	         -0.21433800	          0.00000000	          0.00000000	          0.00000000	         39.76935800	        645.35755100	         25.79191300	          0.94330400	          0.00600000	         -0.30424700	          0.00000000	          3.46076000	          0.00000000	
          1.03700000	          0.00000000	          0.00000000	          0.00000000	          1.30722100	          0.00000000	         -0.21434100	          0.00000000	          0.00000000	          0.00000000	         40.09202500	        645.77742200	         25.83663700	          0.94340400	          0.00600000	         -0.30423800	          0.00000000	          3.45581700	          0.00000000	
          1.03750000	          0.00000000	          0.00000000	          0.00000000	          1.30883200	          0.00000000	         -0.21434400	          0.00000000	          0.00000000	          0.00000000	         40.41512400	        646.19317700	         25.88053800	          0.94350300	          0.00600000	         -0.30423000	          0.00000000	          3.45080300	          0.00000000	
          1.03800000	          0.00000000	          0.00000000	          0.00000000	          1.31044300	          0.00000000	         -0.21434600	          0.00000000	          0.00000000	          0.00000000	         40.73864700	        646.60473500	         25.92360200	          0.94360300	          0.00600000	         -0.30422100	          0.00000000	          3.44572000	          0.00000000	
          1.03850000	          0.00000000	          0.00000000	          0.00000000	          1.31205400	          0.00000000	         -0.21434900	          0.00000000	          0.00000000	          0.00000000	         41.06258100	        647.01201300	         25.96581800	          0.94370200	          0.00600000	         -0.30421100	          0.00000000	          3.44056800	          0.00000000	
          1.03900000	          0.00000000	          0.00000000	          0.00000000	          1.31366500	          0.00000000	         -0.21435200	          0.00000000	          0.00000000	          0.00000000	         41.38691900	        647.41493100	         26.00717100	          0.94380100	          0.00600000	         -0.30420200	          0.00000000	          3.43534900	          0.00000000	
          1.03950000	          0.00000000	          0.00000000	          0.00000000	          1.31527600	          0.00000000	         -0.21435500	          0.00000000	          0.00000000	          0.00000000	         41.71164900	        647.81340500	         26.04764900	          0.94390000	          0.00600000	         -0.30419300	          0.00000000	          3.43006300	          0.00000000	
          1.04000000	          0.00000000	          0.00000000	          0.00000000	          1.31688700	          0.00000000	         -0.21435800	          0.00000000	          0.00000000	          0.00000000	         42.03676100	        648.20735500	         26.08724000	          0.94399900	          0.00600000	         -0.30418400	          0.00000000	          3.42471200	          0.00000000	
          1.04050000	          0.00000000	          0.00000000	          0.00000000	          1.31849800	          0.00000000	         -0.21436100	          0.00000000	          0.00000000	          0.00000000	         42.36224500	        648.59669800	         26.12593100	          0.94409700	          0.00600000	         -0.30417400	          0.00000000	          3.41929600	          0.00000000	
          1.04100000	          0.00000000	          0.00000000	          0.00000000	          1.32010900	          0.00000000	         -0.21436400	          0.00000000	          0.00000000	          0.00000000	         42.68808900	        648.98135000	         26.16371000	          0.94419500	          0.00600000	         -0.30416500	          0.00000000	          3.41381700	          0.00000000	
          1.04150000	          0.00000000	          0.00000000	          0.00000000	          1.32172000	          0.00000000	         -0.21436700	          0.00000000	          0.00000000	          0.00000000	         43.01428400	        649.36123000	         26.20056400	          0.94429300	          0.00600000	         -0.30415500	          0.00000000	          3.40827600	          0.00000000	
          1.04200000	          0.00000000	          0.00000000	          0.00000000	          1.32333100	          0.00000000	         -0.21437000	          0.00000000	          0.00000000	          0.00000000	         43.34081800	        649.73625400	         26.23648200	          0.94439100	          0.00600000	         -0.30414600	          0.00000000	          3.40267300	          0.00000000	
          1.04250000	          0.00000000	          0.00000000	          0.00000000	          1.32494200	          0.00000000	         -0.21437300	          0.00000000	          0.00000000	          0.00000000	         43.66768000	        650.10633900	         26.27145100	          0.94448900	          0.00600000	         -0.30413600	          0.00000000	          3.39701100	          0.00000000	
          1.04300000	          0.00000000	          0.00000000	          0.00000000	          1.32655300	          0.00000000	         -0.21437600	          0.00000000	          0.00000000	          0.00000000	         43.99486000	        650.47140100	         26.30545900	          0.94458600	          0.00600000	         -0.30412600	          0.00000000	          3.39128800	          0.00000000	
          1.04350000	          0.00000000	          0.00000000	          0.00000000	          1.32816400	          0.00000000	         -0.21437900	          0.00000000	          0.00000000	          0.00000000	         44.32234600	        650.83135900	         26.33849500	          0.94468300	          0.00600000	         -0.30411600	          0.00000000	          3.38550800	          0.00000000	
